<svg xml:space="preserve" style="enable-background:new 0 0 1024 1024;" viewBox="0 0 1024 1024" y="0px" x="0px" xmlns:xlink="http://www.w3.org/1999/xlink" xmlns="http://www.w3.org/2000/svg" id="图层_1" version="1.1">
<style type="text/css">
	.st0{fill:#D6791A;}
	.st1{fill:#EDA12A;}
	.st2{fill:#FFE03D;}
	.st3{fill:#D49700;}
	.st4{fill:#FEFFF9;}
	.st5{fill:#F4CC3E;}
	.st6{fill:#FFDFD3;}
	.st7{fill:#FE5631;}
	.st8{fill:#BB8900;}
	.st9{fill:#FFFFFF;}
	.st10{fill:#B36B00;}
	.st11{fill:#C98A00;}
	.st12{fill:#EBC08B;}
	.st13{fill:#955E20;}
	.st14{fill:#542200;}
	.st15{fill:#824900;}
	.st16{fill-rule:evenodd;clip-rule:evenodd;fill:#9AE100;}
	.st17{fill-rule:evenodd;clip-rule:evenodd;fill:#9820AB;}
	.st18{fill-rule:evenodd;clip-rule:evenodd;fill:#FFFFFF;}
	.st19{fill-rule:evenodd;clip-rule:evenodd;fill:#3BD400;}
	.st20{fill-rule:evenodd;clip-rule:evenodd;fill:#EA1F00;}
	.st21{fill:#771000;}
	.st22{fill-rule:evenodd;clip-rule:evenodd;fill:#FFA421;}
	.st23{fill-rule:evenodd;clip-rule:evenodd;}
	.st24{fill:#E67907;}
	.st25{clip-path:url(#SVGID_2_);fill-rule:evenodd;clip-rule:evenodd;fill:#FF2734;}
	.st26{clip-path:url(#SVGID_2_);fill-rule:evenodd;clip-rule:evenodd;fill:#BFE583;}
	.st27{clip-path:url(#SVGID_2_);fill-rule:evenodd;clip-rule:evenodd;fill:#4D8300;}
	.st28{fill:#970000;}
	.st29{fill-rule:evenodd;clip-rule:evenodd;fill:#FF816A;}
	.st30{fill-rule:evenodd;clip-rule:evenodd;fill:#FFB85D;}
	.st31{clip-path:url(#SVGID_4_);}
	.st32{fill-rule:evenodd;clip-rule:evenodd;fill:#E39A00;}
	.st33{fill:#996B00;}
	.st34{fill-rule:evenodd;clip-rule:evenodd;fill:#D67E00;}
	.st35{fill-rule:evenodd;clip-rule:evenodd;fill:#D82200;}
	.st36{clip-path:url(#SVGID_4_);fill:#FF755F;}
	.st37{fill-rule:evenodd;clip-rule:evenodd;fill:#FFD755;}
	.st38{fill-rule:evenodd;clip-rule:evenodd;fill:#FFB110;}
	.st39{fill-rule:evenodd;clip-rule:evenodd;fill:#FFE7D6;}
	.st40{fill-rule:evenodd;clip-rule:evenodd;fill:#FFC37F;}
	.st41{fill-rule:evenodd;clip-rule:evenodd;fill:#FFEEC2;}
	.st42{fill-rule:evenodd;clip-rule:evenodd;fill:#F5FF6E;}
	.st43{clip-path:url(#SVGID_6_);fill-rule:evenodd;clip-rule:evenodd;fill:#B5E900;}
	.st44{clip-path:url(#SVGID_6_);fill-rule:evenodd;clip-rule:evenodd;fill:#8AC300;}
	.st45{clip-path:url(#SVGID_6_);}
	.st46{fill:#FFE46E;}
	.st47{fill:#FFBB1D;}
	.st48{clip-path:url(#SVGID_6_);fill:#FFFFFF;}
	.st49{clip-path:url(#SVGID_6_);fill-rule:evenodd;clip-rule:evenodd;fill:#FFFFFA;}
	.st50{fill-rule:evenodd;clip-rule:evenodd;fill:#8AC300;}
	.st51{clip-path:url(#SVGID_8_);}
	.st52{fill-rule:evenodd;clip-rule:evenodd;fill:#6500DD;}
	.st53{clip-path:url(#SVGID_8_);fill-rule:evenodd;clip-rule:evenodd;fill:#FFFFFF;}
	.st54{fill-rule:evenodd;clip-rule:evenodd;fill:#E5FBA5;}
	.st55{fill:#829500;}
	.st56{fill-rule:evenodd;clip-rule:evenodd;fill:#ECB4CD;}
	.st57{clip-path:url(#SVGID_10_);fill-rule:evenodd;clip-rule:evenodd;fill:#FFC7BF;}
	.st58{clip-path:url(#SVGID_10_);fill-rule:evenodd;clip-rule:evenodd;fill:#FF8C72;}
	.st59{fill-rule:evenodd;clip-rule:evenodd;fill:#FFEEC3;}
	.st60{fill-rule:evenodd;clip-rule:evenodd;fill:#FF9666;}
	.st61{fill-rule:evenodd;clip-rule:evenodd;fill:#FF663F;}
	.st62{display:none;opacity:0.5;}
	.st63{display:inline;fill-rule:evenodd;clip-rule:evenodd;fill:#777EFF;}
	.st64{fill:#D8F4FF;}
	.st65{clip-path:url(#SVGID_12_);fill:#81C2E2;}
	.st66{clip-path:url(#SVGID_12_);fill:#7BCEF0;}
	.st67{clip-path:url(#SVGID_12_);fill:#79CEEB;}
	.st68{clip-path:url(#SVGID_12_);fill:#C2E7F7;}
	.st69{clip-path:url(#SVGID_12_);fill:#FFFFFF;}
</style>
<g>
	<g>
		<path d="M865.6,355.8c0,0-36.9,371.8-68.6,394.1c-31.6,22.3-279.5,146.5-327,138.6s-298-168.8-308.5-226.3
			s39.6-397.7,39.6-397.7s276.5-95.4,349.7-81.5S865.6,355.8,865.6,355.8z" class="st64"></path>
		<path d="M533.3,181.6c6.7,0,12.6,0.4,17.5,1.4c73.2,13.8,314.9,172.8,314.9,172.8S828.7,727.7,797.1,750
			C766.4,771.6,532.6,888.9,475,888.9c-1.8,0-3.5-0.1-4.9-0.4c-47.5-7.9-298-168.8-308.5-226.3c-10.5-57.5,39.6-397.7,39.6-397.7
			S441.4,181.6,533.3,181.6 M533.3,132.6L533.3,132.6c-97.2,0-322.8,76.8-348.2,85.6l-28.2,9.7l-4.3,29.5
			c-12,81.7-50.4,352.9-39.3,413.7c3,16.3,10.9,59.4,160.7,163.2c13.9,9.6,137,94.1,188,102.6c4.2,0.7,8.4,1,13,1
			c77.8,0,326.7-131.3,350.3-147.9c21.8-15.3,39.3-41.4,66.5-238.8c13.2-95.6,22.5-189.6,22.6-190.5l2.9-29.5l-24.8-16.3
			c-41.7-27.4-253.9-165.1-332.7-180C551.9,133.4,543.2,132.6,533.3,132.6L533.3,132.6z"></path>
	</g>
	<g>
		<defs>
			<path d="M865.6,355.8c0,0-36.9,371.8-68.6,394.1c-31.6,22.3-279.5,146.5-327,138.6s-298-168.8-308.5-226.3
				s39.6-397.7,39.6-397.7s276.5-95.4,349.7-81.5S865.6,355.8,865.6,355.8z" id="SVGID_11_"></path>
		</defs>
		<clipPath id="SVGID_2_">
			<use style="overflow:visible;" xlink:href="#SVGID_11_"></use>
		</clipPath>
		<path d="M747.7,703.8c23.4,13.8-149.4,185.1-266.8,185.1s-302-177.8-302-177.8
			s261.8-112.9,310.6-102.3S747.7,703.8,747.7,703.8z" style="clip-path:url(#SVGID_2_);fill:#81C2E2;"></path>
		<path d="M757.8,663.8c-51.4,92.4-295.7,242-278.9,238.5
			c131.9-27.7,328.3-139.6,336.2-160.9c7.9-21.2,67.9-394.3,67.9-394.3s-48.1,14.4-107.1,39.2C757.7,439,775.6,631.8,757.8,663.8z" style="clip-path:url(#SVGID_2_);fill:#7BCEF0;"></path>
		<path d="M327.3,359.2c-21.7,117.9-52,150.1-60.5,258.5
			c-8,102.9,24.2,182.7,24.2,182.7s0,0-48.7-42.4c-48.7-42.4-108.2-30.4-94.1-164.4s44.7-337.3,44.7-337.3S277.2,325.2,327.3,359.2z" style="clip-path:url(#SVGID_2_);fill:#79CEEB;"></path>
		<path d="M881.1,347.2c-91.7,29.1-235.8,102-368.2,115.4
			c-98.2-23.2-317.1-205.4-317.1-205.4s300.3-99.6,349.1-89S881.1,347.2,881.1,347.2z" style="clip-path:url(#SVGID_2_);fill:#C2E7F7;"></path>
		<path d="M252.1,362.5c-34.6,0.1-55.8,104.8-54.7,161.6
			c2.8,158,164.5,267.3,164.5,267.3s-163.2-111-168.1-141.3c-7.3-44.6-22.8-402.1,7.3-385.7c48.1,26.3,248.8,171.9,248.8,171.9
			L252.1,362.5z" style="clip-path:url(#SVGID_2_);fill:#FFFFFF;"></path>
		<path d="M575.8,485.8c35.6,12.7,83.1-38.1,128.6-57.2c45.5-19.1,50.9-19.3,68,5.5
			c17.1,24.8,9.1,135.8,9.1,135.8s55.4-174.2,35.6-190.1s-304.3,82.6-304.3,82.6L575.8,485.8z" style="clip-path:url(#SVGID_2_);fill:#FFFFFF;"></path>
		<path d="M512.8,574.1c6.3,112-4.2,189.2,37.9,204.3
			c42.1,15,222.8-88.9,222.8-88.9S615.3,833.7,482.1,837.7C495.4,726.9,507.9,611.1,512.8,574.1z" style="clip-path:url(#SVGID_2_);fill:#FFFFFF;"></path>
		<path d="M536.3,170.5c84.4,19.8,129.2,43.5,207,89.7s154.5,93.4,122.4,85.6
			C768.1,322,618.1,231.5,498.4,230.5c-116.7-1-278.5,23.1-278.5,23.1L536.3,170.5z" style="clip-path:url(#SVGID_2_);fill:#FFFFFF;"></path>
	</g>
</g>
</svg>
